# xmcd CD database file
#
# Track frame offsets:
#	150
#	17401
#	30991
#	45827
#	65057
#	79750
#	99813
#	113438
#	119022
#	132378
#	149392
#
# Disc length: 2088 seconds
#
# Revision: 0
# Processed by: cddbd v1.5PL3 Copyright (c) Steve Scherf et al.
# Submitted via: NeoAudio 9.9.9
#
DISCID=8308260b
DTITLE=SHORT STUFF - Short Stuff
DYEAR=1976
DGENRE=Blues
TTITLE0=If Bad Luck Were Money
TTITLE1=This Time I Got You
TTITLE2=Main Lady
TTITLE3=Every Day I Learn Something New
TTITLE4=Always There
TTITLE5=Let's Straighten It Out
TTITLE6=One Of These Days
TTITLE7=Sloppy Drunk
TTITLE8=I Made A Mistake
TTITLE9=The Disco Kid
TTITLE10=Coda Kid
EXTD=YEAR: 1976
EXTT0=
EXTT1=
EXTT2=
EXTT3=
EXTT4=
EXTT5=
EXTT6=
EXTT7=
EXTT8=
EXTT9=
EXTT10=
PLAYORDER=
